<?xml version="1.0" encoding="UTF-8" standalone="no"?>
<svg xmlns="http://www.w3.org/2000/svg" viewBox="0 0 1802.75 300" width="1802.75" height="300">
<path fill="#10b981" d="M264.5 5.2c14.9-6.9 32.1-6.9 47 0l218.6 101c8.5 3.9 13.9 12.4 13.9 21.8s-5.4 17.9-13.9 21.8l-218.6 101c-14.9 6.9-32.1 6.9-47 0L45.9 149.8C37.4 145.8 32 137.3 32 128s5.4-17.9 13.9-21.8L264.5 5.2zM476.9 209.6l53.2 24.6c8.5 3.9 13.9 12.4 13.9 21.8s-5.4 17.9-13.9 21.8l-218.6 101c-14.9 6.9-32.1 6.9-47 0L45.9 277.8C37.4 273.8 32 265.3 32 256s5.4-17.9 13.9-21.8l53.2-24.6 152 70.2c23.4 10.8 50.4 10.8 73.8 0l152-70.2zm-152 198.2l152-70.2 53.2 24.6c8.5 3.9 13.9 12.4 13.9 21.8s-5.4 17.9-13.9 21.8l-218.6 101c-14.9 6.9-32.1 6.9-47 0L45.9 405.8C37.4 401.8 32 393.3 32 384s5.4-17.9 13.9-21.8l53.2-24.6 152 70.2c23.4 10.8 50.4 10.8 73.8 0z" transform="scale(0.4) translate(0, 100)"/>
<path transform="translate(240, 20)" fill="#0f172a" d="M101.50 252.25L101.50 252.25Q83 252.25 67.38 245.75Q51.75 239.25 40.38 227.63Q29 216 22.75 200.13Q16.50 184.25 16.50 165.50L16.50 165.50Q16.50 146.75 22.88 130.88Q29.25 115 40.75 103.13Q52.25 91.25 67.75 84.75Q83.25 78.25 101.75 78.25L101.75 78.25Q122.50 78.25 139.50 86.63Q156.50 95 167 110.50L167 110.50L161 116.50Q151 101.75 135.88 93.88Q120.75 86 101.75 86L101.75 86Q79.50 86 62.13 96.38Q44.75 106.75 34.88 124.75Q25 142.75 25 165.75L25 165.75Q25 188.50 34.75 206.38Q44.50 224.25 61.63 234.38Q78.75 244.50 101 244.50L101 244.50Q122 244.50 137.50 235.50Q153 226.50 161.63 209.63Q170.25 192.75 170.50 169.50L170.50 169.50L173.50 172L98 172L98 164.75L178.75 164.75L178.75 166.25Q178.75 193.25 169.25 212.50Q159.75 231.75 142.38 242Q125 252.25 101.50 252.25ZM259 252.50L259 252.50Q242 252.50 228.63 244.63Q215.25 236.75 207.50 223.25Q199.75 209.75 199.75 192.75L199.75 192.75Q199.75 175.75 207.50 162.13Q215.25 148.50 228.50 140.50Q241.75 132.50 258.50 132.50L258.50 132.50Q271.75 132.50 282.38 137.38Q293 142.25 300.13 151.25Q307.25 160.25 310 172.75L310 172.75L310 212Q307 224.50 299.88 233.63Q292.75 242.75 282.38 247.63Q272 252.50 259 252.50ZM260 245.25L260 245.25Q281.50 245.25 294.25 230.88Q307 216.50 307 192.75L307 192.75Q307 176.75 301.13 164.88Q295.25 153 284.50 146.38Q273.75 139.75 259.50 139.75L259.50 139.75Q244.50 139.75 232.88 146.63Q221.25 153.50 214.50 165.38Q207.75 177.25 207.75 192.50L207.75 192.50Q207.75 207.75 214.50 219.63Q221.25 231.50 233.13 238.38Q245 245.25 260 245.25ZM314.50 250L306.75 250L306.75 219.25L309 190.75L306.75 163L306.75 135L314.50 135L314.50 250ZM356 250L348.25 250L348.25 135L356 135L356 250ZM438 250L430.25 250L430.25 177.50Q430.25 160.50 420.25 150Q410.25 139.50 394.50 139.50L394.50 139.50Q384 139.50 375.25 144.25Q366.50 149 361.25 157.38Q356 165.75 356 177L356 177L350.75 176.75Q350.75 163.50 356.63 153.50Q362.50 143.50 372.63 138Q382.75 132.50 395.25 132.50L395.25 132.50Q407.50 132.50 417.13 138Q426.75 143.50 432.38 153.50Q438 163.50 438 177L438 177L438 250ZM520 250L512.25 250L512.25 177.50Q512.25 160.50 502.25 150Q492.25 139.50 476.50 139.50L476.50 139.50Q466 139.50 457.25 144.25Q448.50 149 443.25 157.38Q438 165.75 438 177L438 177L432.75 176.75Q432.75 163.25 438.75 153.38Q444.75 143.50 454.88 138Q465 132.50 477.25 132.50L477.25 132.50Q489.50 132.50 499.13 138Q508.75 143.50 514.38 153.63Q520 163.75 520 177.25L520 177.25L520 250ZM604 252.50L604 252.50Q586.75 252.50 573.13 244.63Q559.50 236.75 551.63 223.13Q543.75 209.50 543.75 192.25L543.75 192.25Q543.75 175.25 551.38 161.75Q559 148.25 572.38 140.38Q585.75 132.50 602.50 132.50L602.50 132.50Q618 132.50 629.88 139.38Q641.75 146.25 648.50 158.50Q655.25 170.75 655.25 186.75L655.25 186.75Q655.25 187.75 655.13 189.88Q655 192 654.50 195.25L654.50 195.25L549.25 195.25L549.25 188L649.50 188L647.25 189.75Q648.25 175 642.75 163.75Q637.25 152.50 626.88 146.13Q616.50 139.75 602.25 139.75L602.25 139.75Q587.25 139.75 575.88 146.38Q564.50 153 558.13 164.63Q551.75 176.25 551.75 191.75L551.75 191.75Q551.75 207.75 558.38 219.75Q565 231.75 577 238.50Q589 245.25 605 245.25L605 245.25Q617 245.25 627.13 240.75Q637.25 236.25 644.25 227.25L644.25 227.25L649.50 232.50Q641.75 241.75 629.88 247.13Q618 252.50 604 252.50Z"/>
<path transform="translate(240, 20)" fill="#10b981" d="M757 252.25L757 252.25Q738.50 252.25 722.88 245.75Q707.25 239.25 695.88 227.63Q684.50 216 678.25 200.13Q672 184.25 672 165.50L672 165.50Q672 146.75 678.38 130.88Q684.75 115 696.25 103.13Q707.75 91.25 723.25 84.75Q738.75 78.25 757.25 78.25L757.25 78.25Q778 78.25 795 86.63Q812 95 822.50 110.50L822.50 110.50L816.50 116.50Q806.50 101.75 791.38 93.88Q776.25 86 757.25 86L757.25 86Q735 86 717.63 96.38Q700.25 106.75 690.38 124.75Q680.50 142.75 680.50 165.75L680.50 165.75Q680.50 188.50 690.25 206.38Q700 224.25 717.13 234.38Q734.25 244.50 756.50 244.50L756.50 244.50Q777.50 244.50 793 235.50Q808.50 226.50 817.13 209.63Q825.75 192.75 826 169.50L826 169.50L829 172L753.50 172L753.50 164.75L834.25 164.75L834.25 166.25Q834.25 193.25 824.75 212.50Q815.25 231.75 797.88 242Q780.50 252.25 757 252.25ZM870.50 250L862.75 250L862.75 135L870.50 135L870.50 250ZM870.50 179.75L870.50 179.75L865.25 178.25Q865.25 156.25 876.88 144.38Q888.50 132.50 906 132.50L906 132.50Q914.50 132.50 921.88 135.50Q929.25 138.50 935.50 145L935.50 145L930.25 150.75Q925 145 918.88 142.50Q912.75 140 904.75 140L904.75 140Q889.50 140 880 150.38Q870.50 160.75 870.50 179.75ZM999.75 252.50L999.75 252.50Q983 252.50 969.63 244.50Q956.25 236.50 948.38 222.75Q940.50 209 940.50 192L940.50 192Q940.50 175.25 948.38 161.75Q956.25 148.25 969.63 140.38Q983 132.50 999.75 132.50L999.75 132.50Q1016.25 132.50 1029.63 140.38Q1043 148.25 1050.88 161.75Q1058.75 175.25 1058.75 192L1058.75 192Q1058.75 209.25 1050.88 222.88Q1043 236.50 1029.63 244.50Q1016.25 252.50 999.75 252.50ZM999.75 245.25L999.75 245.25Q1014.25 245.25 1025.75 238.25Q1037.25 231.25 1044 219.13Q1050.75 207 1050.75 191.75L1050.75 191.75Q1050.75 177 1044 165.25Q1037.25 153.50 1025.75 146.63Q1014.25 139.75 999.75 139.75L999.75 139.75Q985.25 139.75 973.63 146.63Q962 153.50 955.25 165.25Q948.50 177 948.50 192L948.50 192Q948.50 207.25 955.25 219.25Q962 231.25 973.63 238.25Q985.25 245.25 999.75 245.25ZM1129 252.50L1129 252.50Q1115.50 252.50 1104.88 246.13Q1094.25 239.75 1088.25 228.38Q1082.25 217 1082.25 202L1082.25 202L1082.25 135L1090 135L1090 201.75Q1090 214.50 1094.88 224.38Q1099.75 234.25 1108.63 239.88Q1117.50 245.50 1129 245.50L1129 245.50Q1146.50 245.50 1157.25 233.25Q1168 221 1168 201.75L1168 201.75L1168 135L1175.75 135L1175.75 202Q1175.75 216.75 1169.75 228.25Q1163.75 239.75 1153.25 246.13Q1142.75 252.50 1129 252.50ZM1303.50 250L1295.75 250L1295.75 181.25Q1295.75 162.50 1285 151Q1274.25 139.50 1256.25 139.50L1256.25 139.50Q1244 139.50 1234.63 144.88Q1225.25 150.25 1219.88 159.50Q1214.50 168.75 1214.50 181L1214.50 181L1209.25 178Q1209.25 165 1215.63 154.75Q1222 144.50 1232.88 138.50Q1243.75 132.50 1257.50 132.50L1257.50 132.50Q1271.25 132.50 1281.63 138.75Q1292 145 1297.75 156Q1303.50 167 1303.50 181.25L1303.50 181.25L1303.50 250ZM1214.50 250L1206.75 250L1206.75 135L1214.50 135L1214.50 250ZM1384.75 252.50L1384.75 252.50Q1368.25 252.50 1355.38 244.63Q1342.50 236.75 1335 223.25Q1327.50 209.75 1327.50 192.75L1327.50 192.75Q1327.50 175.50 1335 161.88Q1342.50 148.25 1355.50 140.38Q1368.50 132.50 1384.75 132.50L1384.75 132.50Q1397.25 132.50 1408.25 137.25Q1419.25 142 1427.13 151Q1435 160 1437.75 172.75L1437.75 172.75L1437.75 212Q1434.75 224.25 1427.13 233.38Q1419.50 242.50 1408.63 247.50Q1397.75 252.50 1384.75 252.50ZM1386.25 245.25L1386.25 245.25Q1400.50 245.25 1411.38 238.50Q1422.25 231.75 1428.38 219.88Q1434.50 208 1434.50 192.75L1434.50 192.75Q1434.50 177 1428.25 165.13Q1422 153.25 1411 146.50Q1400 139.75 1385.50 139.75L1385.50 139.75Q1371 139.75 1359.75 146.50Q1348.50 153.25 1342 165.13Q1335.50 177 1335.50 192.50L1335.50 192.50Q1335.50 207.75 1342 219.75Q1348.50 231.75 1360 238.50Q1371.50 245.25 1386.25 245.25ZM1442 76L1442 250L1434.25 250L1434.25 219.25L1436.75 190.75L1434.25 163L1434.25 76L1442 76ZM1473.75 245.75L1464.50 245.75L1545.75 139.25L1555 139.25L1473.75 245.75ZM1553.75 250L1464.50 250L1464.50 245.75L1469.75 243.25L1553.75 243.25L1553.75 250ZM1547.25 141.75L1468.50 141.75L1468.50 135L1555 135L1555 139.25L1547.25 141.75Z"/>
</svg>